<svg xmlns="http://www.w3.org/2000/svg" width="144" height="41" fill="none" viewBox="0 0 144 41"><path fill="url(#paint0_radial_2423_1119)" d="M0 17.4601V29.1101L13.53 40.4001H24.24V6.67014H13.53L0 17.4501V17.4601ZM13.41 29.3301L7.95001 23.5401L13.41 18.5401V29.3301ZM27.39 16.6401H38.31V40.3901H27.39V16.6401ZM27.39 6.64014H38.31V13.6401H27.39V6.64014ZM69.24 6.73014L60.69 14.2501L51.92 6.73014H40.9V40.4101H51.84L60.61 31.9301L69.25 40.4101H80.32V6.73014H69.25H69.24ZM51.65 29.3301V18.5401L57.11 23.5401L51.65 29.3301ZM69.47 29.3301L64.01 23.5401L69.47 18.5401V29.3301Z"/><path fill="#002579" d="M86.98 20.8302H85.13V20.1602H89.64V20.8302H87.78V26.2502H86.98V20.8302Z"/><path fill="#002579" d="M93.4601 23.4002H91.0901V25.5901H93.7301V26.2502H90.3101V20.1602H93.6001V20.8202H91.1001V22.7402H93.47V23.3902L93.4601 23.4002Z"/><path fill="#002579" d="M99.01 26.0501C98.72 26.1901 98.14 26.3401 97.4 26.3401C95.68 26.3401 94.39 25.2601 94.39 23.2601C94.39 21.2601 95.68 20.0601 97.57 20.0601C98.33 20.0601 98.81 20.2201 99.02 20.3301L98.83 20.9701C98.53 20.8301 98.11 20.7201 97.6 20.7201C96.17 20.7201 95.23 21.6301 95.23 23.2301C95.23 24.7201 96.09 25.6801 97.57 25.6801C98.05 25.6801 98.54 25.5801 98.85 25.4301L99.01 26.0501Z"/><path fill="#002579" d="M100.78 20.1602V22.7102H103.72V20.1602H104.51V26.2502H103.72V23.4002H100.78V26.2502H99.99V20.1602H100.78Z"/><path fill="#002579" d="M105.88 26.2502V20.1602H106.74L108.69 23.2402C109.14 23.9502 109.49 24.5902 109.78 25.2202H109.8C109.73 24.4002 109.71 23.6602 109.71 22.7102V20.1602H110.45V26.2502H109.66L107.73 23.1602C107.31 22.4802 106.9 21.7901 106.59 21.1301H106.56C106.61 21.9101 106.62 22.6402 106.62 23.6502V26.2502H105.88Z"/><path fill="#002579" d="M117.02 23.14C117.02 25.23 115.75 26.34 114.19 26.34C112.63 26.34 111.46 25.09 111.46 23.25C111.46 21.32 112.66 20.05 114.29 20.05C115.92 20.05 117.03 21.32 117.03 23.13L117.02 23.14ZM112.3 23.24C112.3 24.54 113 25.7 114.24 25.7C115.48 25.7 116.19 24.55 116.19 23.17C116.19 21.96 115.56 20.7 114.25 20.7C112.94 20.7 112.3 21.9 112.3 23.24Z"/><path fill="#002579" d="M118.04 20.1602H118.83V25.5901H121.43V26.2502H118.04V20.1602Z"/><path fill="#002579" d="M127.15 23.14C127.15 25.23 125.88 26.34 124.32 26.34C122.76 26.34 121.59 25.09 121.59 23.25C121.59 21.32 122.79 20.05 124.42 20.05C126.05 20.05 127.16 21.32 127.16 23.13L127.15 23.14ZM122.43 23.24C122.43 24.54 123.13 25.7 124.37 25.7C125.61 25.7 126.32 24.55 126.32 23.17C126.32 21.96 125.69 20.7 124.38 20.7C123.07 20.7 122.43 21.9 122.43 23.24Z"/><path fill="#002579" d="M132.8 25.9801C132.45 26.1101 131.75 26.3101 130.93 26.3101C130.01 26.3101 129.25 26.0801 128.65 25.5101C128.13 25.0001 127.8 24.1901 127.8 23.2401C127.8 21.4301 129.05 20.1001 131.09 20.1001C131.79 20.1001 132.34 20.2501 132.61 20.3801L132.42 21.0201C132.09 20.8801 131.69 20.7601 131.07 20.7601C129.59 20.7601 128.62 21.6801 128.62 23.2101C128.62 24.7401 129.55 25.6701 130.97 25.6701C131.48 25.6701 131.84 25.6001 132.02 25.5101V23.7001H130.78V23.0701H132.78V26.0001L132.8 25.9801Z"/><path fill="#002579" d="M134.79 20.1602V26.2502H134V20.1602H134.79Z"/><path fill="#002579" d="M139.31 23.4002H136.94V25.5901H139.58V26.2502H136.16V20.1602H139.45V20.8202H136.95V22.7402H139.32V23.3902L139.31 23.4002Z"/><path fill="#002579" d="M140.49 25.2901C140.84 25.5101 141.36 25.6901 141.9 25.6901C142.7 25.6901 143.17 25.2701 143.17 24.6501C143.17 24.0801 142.84 23.7601 142.02 23.4401C141.03 23.0901 140.41 22.5701 140.41 21.7201C140.41 20.7701 141.2 20.0701 142.38 20.0701C143 20.0701 143.45 20.2201 143.73 20.3701L143.51 21.0101C143.31 20.9001 142.91 20.7201 142.35 20.7201C141.52 20.7201 141.2 21.2201 141.2 21.6301C141.2 22.2001 141.57 22.4801 142.41 22.8001C143.44 23.2001 143.96 23.6901 143.96 24.5901C143.96 25.5301 143.26 26.3401 141.83 26.3401C141.24 26.3401 140.6 26.1701 140.28 25.9501L140.48 25.2901H140.49Z"/><path fill="#002579" d="M83.91 0.590088C82.13 0.590088 80.6801 2.04009 80.6801 3.82009C80.6801 5.60009 82.13 7.05009 83.91 7.05009C85.69 7.05009 87.14 5.60009 87.14 3.82009C87.14 2.04009 85.69 0.590088 83.91 0.590088ZM83.91 6.61009C82.37 6.61009 81.1201 5.36009 81.1201 3.82009C81.1201 2.28009 82.37 1.03009 83.91 1.03009C85.45 1.03009 86.7001 2.28009 86.7001 3.82009C86.7001 5.36009 85.45 6.61009 83.91 6.61009Z"/><path fill="#002579" d="M85.48 4.7C85.35 4.43 85.23 4.25 84.86 4.15V4.1C85.55 4.01 85.83 3.67 85.83 3.1C85.83 2.39 85.33 2 84.38 2H82.28V5.61H83.29V4.38H83.7C84.09 4.38 84.2 4.46 84.33 4.72L84.76 5.6H85.93L85.48 4.7ZM84.37 3.62H83.29V2.9H84.37C84.67 2.9 84.77 2.97 84.77 3.26C84.77 3.57 84.66 3.62 84.37 3.62Z"/><defs><radialGradient id="paint0_radial_2423_1119" cx="0" cy="0" r="1" gradientTransform="translate(6.37 -3.74987) scale(75.54 75.54)" gradientUnits="userSpaceOnUse"><stop stop-color="#00FF96"/><stop offset=".25" stop-color="#00B4D0"/><stop offset=".76" stop-color="#5F1CC5"/><stop offset=".94" stop-color="#072D70"/></radialGradient></defs></svg>